<?xml version="1.0" encoding="utf-8"?><svg width="14" height="12" fill="none" xmlns="http://www.w3.org/2000/svg" viewBox="0 0 14 12"><path fill-rule="evenodd" clip-rule="evenodd" d="M9.047 6.206L5.79 4.12l-4.672 7.333a.605.605 0 01-1.022-.647l4.998-7.845a.61.61 0 01.839-.184l3.277 2.098L12.228.527a.607.607 0 01.843-.153.601.601 0 01.154.84L9.874 6.042a.609.609 0 01-.827.164zM.46 6.887l.909.226.684-1.074-1.3-.322a.603.603 0 10-.293 1.17zm11.86.174L9.346 9.74 5.847 7.03a.603.603 0 00-.225-.108l-.465-.116-.685 1.074.733.182 3.798 2.939a.61.61 0 00.779-.029l3.352-3.018a.6.6 0 00.043-.851.608.608 0 00-.856-.043z" fill="#FFF"/></svg>