<?xml version="1.0" encoding="utf-8"?><svg viewBox="0 0 14 12" xmlns="http://www.w3.org/2000/svg" xmlns:xlink="http://www.w3.org/1999/xlink"><style>:root>svg{display:none}:root>svg:target{display:block}</style><svg fill="none" viewBox="0 0 14 10" id="funds" xmlns="http://www.w3.org/2000/svg"><path d="M12.84 3.05c.51 0 .923.413.923.923H0L4.525 0l.531.714L2.351 3.05H12.84zM.923 6.923A.923.923 0 010 6h13.763L9.238 9.973l-.532-.715 2.706-2.335H.923z" fill="#6C7983"/></svg><svg fill="none" viewBox="0 0 14 10" id="funds-hover" xmlns="http://www.w3.org/2000/svg"><path d="M12.84 3.05c.51 0 .923.413.923.923H0L4.525 0l.531.714L2.351 3.05H12.84zM.923 6.923A.923.923 0 010 6h13.763L9.238 9.973l-.532-.715 2.706-2.335H.923z" fill="#FFF"/></svg><svg fill="none" viewBox="0 0 14 12" id="trade" xmlns="http://www.w3.org/2000/svg"><path fill-rule="evenodd" clip-rule="evenodd" d="M9.047 6.206L5.79 4.12l-4.672 7.333a.605.605 0 01-1.022-.647l4.998-7.845a.61.61 0 01.839-.184l3.277 2.098L12.228.527a.607.607 0 01.843-.153.601.601 0 01.154.84L9.874 6.042a.609.609 0 01-.827.164zM.46 6.887l.909.226.684-1.074-1.3-.322a.603.603 0 10-.293 1.17zm11.86.174L9.346 9.74 5.847 7.03a.603.603 0 00-.225-.108l-.465-.116-.685 1.074.733.182 3.798 2.939a.61.61 0 00.779-.029l3.352-3.018a.6.6 0 00.043-.851.608.608 0 00-.856-.043z" fill="#6C7983"/></svg><svg fill="none" viewBox="0 0 14 12" id="trade-hover" xmlns="http://www.w3.org/2000/svg"><path fill-rule="evenodd" clip-rule="evenodd" d="M9.047 6.206L5.79 4.12l-4.672 7.333a.605.605 0 01-1.022-.647l4.998-7.845a.61.61 0 01.839-.184l3.277 2.098L12.228.527a.607.607 0 01.843-.153.601.601 0 01.154.84L9.874 6.042a.609.609 0 01-.827.164zM.46 6.887l.909.226.684-1.074-1.3-.322a.603.603 0 10-.293 1.17zm11.86.174L9.346 9.74 5.847 7.03a.603.603 0 00-.225-.108l-.465-.116-.685 1.074.733.182 3.798 2.939a.61.61 0 00.779-.029l3.352-3.018a.6.6 0 00.043-.851.608.608 0 00-.856-.043z" fill="#FFF"/></svg><svg fill="none" viewBox="0 0 12 12" id="wallet" xmlns="http://www.w3.org/2000/svg"><path fill-rule="evenodd" clip-rule="evenodd" d="M1 0h3a1 1 0 011 1v3a1 1 0 01-1 1H1a1 1 0 01-1-1V1a1 1 0 011-1zm7 0h3a1 1 0 011 1v3a1 1 0 01-1 1H8a1 1 0 01-1-1V1a1 1 0 011-1zM4 7H1a1 1 0 00-1 1v3a1 1 0 001 1h3a1 1 0 001-1V8a1 1 0 00-1-1zm4 0h3a1 1 0 011 1v3a1 1 0 01-1 1H8a1 1 0 01-1-1V8a1 1 0 011-1z" fill="#6C7983"/></svg><svg fill="none" viewBox="0 0 12 12" id="wallet-hover" xmlns="http://www.w3.org/2000/svg"><path fill-rule="evenodd" clip-rule="evenodd" d="M1 0h3a1 1 0 011 1v3a1 1 0 01-1 1H1a1 1 0 01-1-1V1a1 1 0 011-1zm7 0h3a1 1 0 011 1v3a1 1 0 01-1 1H8a1 1 0 01-1-1V1a1 1 0 011-1zM4 7H1a1 1 0 00-1 1v3a1 1 0 001 1h3a1 1 0 001-1V8a1 1 0 00-1-1zm4 0h3a1 1 0 011 1v3a1 1 0 01-1 1H8a1 1 0 01-1-1V8a1 1 0 011-1z" fill="#FFF"/></svg></svg>