<svg width="14" height="12" viewBox="0 0 14 12" fill="none" xmlns="http://www.w3.org/2000/svg">
<path fill-rule="evenodd" clip-rule="evenodd" d="M9.04733 6.20599L5.78933 4.11999L1.11733 11.4533C1.00267 11.634 0.806001 11.7333 0.605335 11.7333C0.494001 11.7333 0.381335 11.7033 0.281335 11.6393C-0.00133184 11.4613 -0.0853319 11.0873 0.0946681 10.806L5.09267 2.96133C5.17867 2.82599 5.316 2.72999 5.47333 2.69466C5.63133 2.66066 5.796 2.68933 5.932 2.77666L9.20933 4.87466L12.228 0.527328C12.4187 0.252661 12.7953 0.183995 13.0713 0.373995C13.3473 0.562661 13.416 0.939328 13.2253 1.21399L9.874 6.04199C9.688 6.30866 9.32267 6.38199 9.04733 6.20599ZM0.460001 6.88733L1.36867 7.11266L2.05267 6.03866L0.752668 5.71733C0.427335 5.63666 0.0986681 5.83333 0.0180015 6.15733C-0.0626652 6.47933 0.134668 6.80599 0.460001 6.88733ZM12.3207 7.06133L9.34534 9.73866L5.84733 7.03133C5.78067 6.98066 5.704 6.94266 5.622 6.92333L5.15667 6.80733L4.472 7.88133L5.20533 8.06333L9.00333 11.002C9.114 11.0867 9.24467 11.128 9.376 11.128C9.522 11.128 9.668 11.076 9.782 10.9733L13.134 7.95533C13.382 7.73266 13.4013 7.35133 13.1767 7.10399C12.952 6.85733 12.5693 6.83733 12.3207 7.06133Z" fill="#FFF"/>
</svg>
