<svg width="12" height="12" viewBox="0 0 12 12" fill="none" xmlns="http://www.w3.org/2000/svg">
<path fill-rule="evenodd" clip-rule="evenodd" d="M1 0H4C4.553 0 5 0.448 5 1V4C5 4.552 4.553 5 4 5H1C0.447 5 0 4.552 0 4V1C0 0.447 0.447 0 1 0ZM8 0H11C11.553 0 12 0.448 12 1V4C12 4.552 11.553 5 11 5H8C7.447 5 7 4.552 7 4V1C7 0.447 7.447 0 8 0ZM4 7H1C0.447 7 0 7.447 0 8V11C0 11.552 0.447 12 1 12H4C4.553 12 5 11.552 5 11V8C5 7.448 4.553 7 4 7ZM8 7H11C11.553 7 12 7.448 12 8V11C12 11.552 11.553 12 11 12H8C7.447 12 7 11.552 7 11V8C7 7.447 7.447 7 8 7Z" fill="#FFF"/>
</svg>
