<svg width="20" height="20" fill="none" xmlns="http://www.w3.org/2000/svg"><path d="M19.044 9.982l.876-2.284a.625.625 0 00-.19-.709l-1.898-1.54-.384-2.416a.624.624 0 00-.52-.518l-2.416-.384-1.538-1.9a.625.625 0 00-.707-.19L9.98.918 7.697.043a.622.622 0 00-.708.19l-1.54 1.9-2.416.383a.625.625 0 00-.517.518L2.13 5.451l-1.9 1.54a.624.624 0 00-.19.707l.876 2.284-.875 2.284a.622.622 0 00.19.707l1.9 1.539.384 2.416c.042.267.25.477.517.52l2.417.384 1.54 1.898a.62.62 0 00.708.19l2.283-.875 2.284.876a.625.625 0 00.709-.19l1.538-1.9 2.417-.384a.625.625 0 00.519-.519l.384-2.416 1.899-1.539a.623.623 0 00.19-.707l-.877-2.284z" fill="#00A275"/><path fill-rule="evenodd" clip-rule="evenodd" d="M6.238 6.863c0 1.032.84 1.871 1.872 1.871 1.031 0 1.871-.84 1.871-1.871 0-1.032-.84-1.871-1.871-1.871-1.032 0-1.872.84-1.872 1.871zm1.248 0a.624.624 0 111.248 0 .624.624 0 01-1.248 0zM9.981 13.1c0 1.033.84 1.872 1.871 1.872 1.032 0 1.872-.84 1.872-1.871 0-1.032-.84-1.872-1.872-1.872-1.031 0-1.871.84-1.871 1.872zm1.248 0c0-.342.28-.623.623-.623.343 0 .624.28.624.624 0 .343-.28.624-.624.624a.626.626 0 01-.623-.624z" fill="#26313A"/><path d="M6.862 14.972a.624.624 0 01-.507-.987l6.238-8.733a.624.624 0 111.016.725L7.37 14.71a.626.626 0 01-.509.262z" fill="#26313A"/></svg>