<svg width="132" height="33" fill="none" xmlns="http://www.w3.org/2000/svg"><g fill="#E8EAEB"><path d="M30.926 7.698l-5.777 5.74v11.547H11.623v-5.74L0 30.725h30.926V7.698zM9.65 15.397V9.662h5.782v5.735H9.649z"/><path fill-rule="evenodd" clip-rule="evenodd" d="M42.073 0h12.235c1.903 0 3.33.405 4.282 1.283.884.878 1.36 2.228 1.36 3.984 0 1.148-.272 2.16-.748 2.836a4.621 4.621 0 01-1.903 1.553c1.563.405 2.65 1.486 3.262 3.174.204.608.272 1.283.272 2.093 0 1.891-.476 3.31-1.36 4.254-.883.878-2.31 1.351-4.281 1.351H42.073V0zM54.58 5.875c0-1.148-.612-1.756-1.767-1.756h-5.438v4.12h5.438c1.155 0 1.767-.609 1.767-1.756v-.608zm-.884 6.482c1.156 0 1.768.608 1.768 1.756v.608c0 1.148-.612 1.756-1.768 1.756h-6.321v-4.12h6.321zM88.293 0h12.235c1.903 0 3.33.405 4.282 1.283.883.878 1.359 2.228 1.359 3.984 0 1.148-.272 2.16-.748 2.836a4.614 4.614 0 01-1.903 1.553c1.563.405 2.311 1.486 2.855 3.174.204.608.272 1.283.272 2.093 0 1.891-.068 3.31-.952 4.254-.883.878-2.311 1.351-4.282 1.351H88.293V0zm12.506 5.875c0-1.148-.611-1.756-1.767-1.756h-5.437v4.12h5.437c1.156 0 1.767-.609 1.767-1.756v-.608zm-.883 6.482c1.155 0 1.767.608 1.767 1.756v.608c0 1.148-.612 1.756-1.767 1.756h-6.321v-4.12h6.32z"/><path d="M124.521 0h6.117l-6.933 10.264 7.001 10.264h-6.117l-4.282-6.482-4.282 6.482h-6.118l7.001-10.264L110.179 0h6.05l4.146 6.483L124.521 0zM80.204 10.804c1.428-1.215 2.108-2.633 2.108-4.321v-.608c0-2.026-.476-3.58-1.428-4.457C79.933.473 78.437 0 76.398 0h-5.845c-2.651 0-4.758 2.093-4.758 4.727v.878h5.302V5.47c0-.743.611-1.35 1.359-1.35h2.787c.951 0 1.767.81 1.767 1.755a2.84 2.84 0 01-1.156 2.296l-8.972 5.807a3.191 3.191 0 00-1.291 2.566v3.984h16.788v-4.12H71.64l7.205-4.523c.476-.338.884-.743 1.36-1.08z"/></g><g fill="#00a275"><path d="M0 23.29l5.783-5.857V5.788h13.608v5.857L30.957 0H0v23.29zm15.51-1.989v-5.783h5.79v5.783h-5.79zm26.81 9.752v-5.788h4.082v1.09h-2.858v1.293h2.722v1.022h-2.79v1.294h2.858v1.09H42.32zm15.036 0l-1.429-2.11-1.496 2.11h-1.497l2.109-2.996-1.973-2.724h1.497l1.292 1.975 1.293-1.975h1.497l-1.973 2.792 2.109 2.997h-1.429v-.069zm7.688-2.86c0-1.77 1.293-2.996 3.062-2.996 1.293 0 1.973.68 2.382 1.43l-1.089.613c-.204-.477-.817-.817-1.429-.817-1.02 0-1.769.817-1.769 1.907s.817 1.906 1.77 1.906c.611 0 1.088-.408 1.428-.817l1.089.477c-.409.68-1.089 1.43-2.382 1.43-1.769-.136-3.061-1.362-3.061-3.133zm16.194 2.86V28.67h-2.722v2.383h-1.225v-5.788h1.225v2.315h2.722v-2.315h1.224v5.788h-1.224z"/><path fill-rule="evenodd" clip-rule="evenodd" d="M93.416 30.032l.409 1.021h1.156l-2.177-5.788h-1.497l-2.177 5.788h1.36l.409-1.021h2.517zm-2.109-.885l.885-2.52.884 2.52h-1.769z"/><path d="M105.867 31.053l-2.721-3.813v3.814h-1.225v-5.789h1.293l2.721 3.61v-3.61h1.225v5.788h-1.293zm8.301-2.86c0-1.77 1.429-2.996 3.062-2.996 1.224 0 1.973.613 2.381 1.294l-1.02.613c-.273-.409-.817-.817-1.429-.817-1.021 0-1.769.817-1.769 1.906 0 1.09.816 1.907 1.769 1.907.476 0 1.02-.204 1.224-.409v-.68h-1.496v-1.09h2.721v2.18c-.612.68-1.429 1.089-2.517 1.089-1.565 0-2.926-1.09-2.926-2.997zm12.723 2.86v-5.788h4.083v1.09h-2.858v1.293h2.789v1.022h-2.789v1.294h2.858v1.09h-4.083z"/></g></svg>